<?xml version="1.0" encoding="iso-8859-1"?>
<!-- Generator: Adobe Illustrator 18.0.0, SVG Export Plug-In . SVG Version: 6.00 Build 0)  -->
<!DOCTYPE svg PUBLIC "-//W3C//DTD SVG 1.1//EN" "http://www.w3.org/Graphics/SVG/1.1/DTD/svg11.dtd">
<svg version="1.1" id="Capa_1" xmlns="http://www.w3.org/2000/svg" xmlns:xlink="http://www.w3.org/1999/xlink" x="0px" y="0px"
	 viewBox="0 0 496.804 496.804" style="enable-background:new 0 0 496.804 496.804;" xml:space="preserve">
<g id="XMLID_129_">
	<path id="XMLID_132_" d="M467.585,433.167c-4.972-12.719-17.23-21.089-30.888-21.089H51.416c-13.659,0-25.917,8.37-30.891,21.089
		L3.069,477.834c-1.674,4.278-1.125,9.104,1.472,12.905c2.587,3.793,6.89,6.065,11.482,6.065h456.066
		c4.593,0,8.895-2.272,11.482-6.065c2.594-3.801,3.146-8.627,1.472-12.905L467.585,433.167z"/>
	<path id="XMLID_131_" d="M64.353,377.85H423.75c18.315,0,33.162-14.846,33.162-33.159V190.167h-33.137L423.75,344.73l-359.439-0.04
		l0.042-231.253h160.911v-33.12H64.353c-18.315,0-33.162,14.846-33.162,33.161V344.69C31.191,363.004,46.037,377.85,64.353,377.85z"
		/>
	<path id="XMLID_130_" d="M465.862,0h-178.65c-15.923,0-28.828,12.904-28.828,28.826v99.393c0,15.922,12.905,28.826,28.828,28.826
		h41.974l-17.838,48.008c-0.47,1.268-0.099,2.7,0.938,3.573c0.598,0.51,1.342,0.775,2.094,0.775c0.542,0,1.091-0.137,1.586-0.42
		l91.808-51.937h58.088c15.923,0,28.828-12.904,28.828-28.826V28.826C494.69,12.904,481.784,0,465.862,0z"/>
</g>
<g>
</g>
<g>
</g>
<g>
</g>
<g>
</g>
<g>
</g>
<g>
</g>
<g>
</g>
<g>
</g>
<g>
</g>
<g>
</g>
<g>
</g>
<g>
</g>
<g>
</g>
<g>
</g>
<g>
</g>
</svg>
