<svg width="27" height="25" viewBox="0 0 27 25" fill="none" xmlns="http://www.w3.org/2000/svg">
<path d="M13.5 0C6.04437 0 0 5.59663 0 12.5C0 18.4024 4.41969 23.3462 10.3612 24.6567C10.0539 24.5889 9.74908 24.513 9.45 24.4264V21.5625C9.45 21.5625 8.94375 21.7187 8.26875 21.7187C6.38031 21.7187 5.59575 20.1587 5.4 19.375C5.2811 18.8976 4.9706 18.4452 4.63725 18.1687C4.239 17.8399 4.0526 17.8389 4.05 17.7264C4.04481 17.4904 4.39165 17.5 4.55625 17.5C5.4 17.5 6.03969 18.3312 6.33669 18.7611C7.07244 19.8221 7.86219 20 8.26875 20C8.775 20 9.21219 19.9298 9.51335 19.7952C9.6525 18.8875 10.0887 18.0788 10.8 17.5C7.63425 16.9139 5.4 15.2327 5.4 12.5C5.4 11.0923 6.0101 9.79856 7.02675 8.75385C6.9229 8.48125 6.75 7.92981 6.75 7.03125C6.75 6.4375 6.79465 5.70865 7.0875 5C7.0875 5 9.01281 5.0125 10.8286 6.60481C11.6666 6.37885 12.5633 6.25 13.5 6.25C14.4367 6.25 15.3334 6.37885 16.1714 6.60481C17.9872 5.0125 19.9125 5 19.9125 5C20.2069 5.70865 20.25 6.4375 20.25 7.03125C20.25 8 20.1108 8.5649 20.0257 8.80865C21.0112 9.84375 21.6 11.1173 21.6 12.5C21.6 15.2327 19.3658 16.9139 16.2 17.5C17.0453 18.1875 17.55 19.1889 17.55 20.3125V24.4264C17.2509 24.5135 16.9467 24.5889 16.6388 24.6567C22.5803 23.3462 27 18.4024 27 12.5C27 5.59663 20.9556 0 13.5 0ZM14.4414 24.9663C14.1303 24.9865 13.8167 25 13.5 25C13.8167 25 14.1298 24.9861 14.4414 24.9663ZM16.5043 24.6856C15.8999 24.813 15.2804 24.9024 14.648 24.9519C15.2804 24.9024 15.8999 24.8125 16.5043 24.6856ZM13.5 25C13.1833 25 12.8697 24.9865 12.5586 24.9663C12.8702 24.9861 13.1833 25 13.5 25ZM12.3515 24.9519C11.7196 24.9024 11.0996 24.813 10.4957 24.6856C11.1001 24.8125 11.7196 24.9024 12.3515 24.9519Z" fill="#FF1493"/>
</svg>
