<svg width="27" height="25" viewBox="0 0 27 25" fill="none" xmlns="http://www.w3.org/2000/svg">
<path d="M13.5 0C6.04565 0 0 5.59783 0 12.5C0 19.4022 6.04565 25 13.5 25C20.9543 25 27 19.4022 27 12.5C27 5.59783 20.9543 0 13.5 0ZM9.97826 17.9348C9.97826 18.2065 9.68478 18.4783 9.3913 18.4783H7.04348C6.75 18.4783 6.45652 18.2065 6.45652 17.9348V9.78261C6.45652 9.51087 6.75 9.23913 7.04348 9.23913H9.3913C9.68478 9.23913 9.97826 9.51087 9.97826 9.78261V17.9348ZM8.21739 8.69565C7.27826 8.69565 6.45652 7.93478 6.45652 7.06522C6.45652 6.19565 7.27826 5.43478 8.21739 5.43478C9.15652 5.43478 9.97826 6.19565 9.97826 7.06522C9.97826 7.93478 9.15652 8.69565 8.21739 8.69565ZM21.1304 17.9348C21.1304 18.2065 20.837 18.4783 20.5435 18.4783H18.1957C17.9022 18.4783 17.6087 18.2065 17.6087 17.9348V13.8587C17.6087 13.0978 16.963 12.5 16.1413 12.5C15.3196 12.5 14.6739 13.0978 14.6739 13.8587V17.9348C14.6739 18.2065 14.3804 18.4783 14.087 18.4783H11.7391C11.4457 18.4783 11.1522 18.2065 11.1522 17.9348V9.78261C11.1522 9.51087 11.4457 9.23913 11.7391 9.23913H14.087C14.3804 9.23913 14.6739 9.45652 14.6739 9.78261C15.3196 9.45652 15.9652 9.23913 16.7283 9.23913C19.1348 9.23913 21.1304 11.087 21.1304 13.3152V17.9348Z" fill="#FF1493"/>
</svg>
